<?xml version="1.0" encoding="UTF-8" standalone="no"?>
<svg width="254px" height="56px" viewBox="0 0 254 56" version="1.1" xmlns="http://www.w3.org/2000/svg" xmlns:xlink="http://www.w3.org/1999/xlink" xmlns:sketch="http://www.bohemiancoding.com/sketch/ns">
    <!-- Generator: Sketch 3.2.2 (9983) - http://www.bohemiancoding.com/sketch -->
    <title>TaskSnail + Shape + Oval 1</title>
    <desc>Created with Sketch.</desc>
    <defs></defs>
    <g id="Page-1" stroke="none" stroke-width="1" fill="none" fill-rule="evenodd" sketch:type="MSPage">
        <g id="GradualEngagement" sketch:type="MSArtboardGroup" transform="translate(-21.000000, -137.000000)">
            <g id="TaskSnail-+-Shape-+-Oval-1" sketch:type="MSLayerGroup" transform="translate(25.000000, 140.000000)">
                <path d="M22.7525503,22.3468456 C23.143097,22.3468456 23.4973139,22.0088975 23.5518088,21.4971474 C23.6153862,20.9467747 23.3338292,20.3288124 22.7525503,19.9329303 C22.1167764,19.4984255 21.2176106,19.4115246 20.3456922,19.7880954 C19.382949,20.2032888 18.5836905,21.1205766 18.2113086,22.3468456 C17.8116794,23.6889826 17.9751641,25.2435441 18.7380927,26.614648 C19.5645986,28.0919642 21.0087135,29.1927096 22.7525503,29.5885917 C24.6235418,30.0134408 26.6671005,29.578936 28.3746074,28.3237 C30.191104,26.9815631 31.4626517,24.8380063 31.8350335,22.3468456 C32.2255803,19.7108501 31.580724,16.9300196 29.9731244,14.6705948 C28.292865,12.2759908 25.6952748,10.673151 22.7525503,10.2772689 C19.6735884,9.86207542 16.4765543,10.8083302 13.9243766,12.9615427 C11.2541265,15.2113118 9.50120721,18.5811377 9.1288254,22.3468456 C8.73827862,26.2670442 9.86450654,30.2741437 12.316777,33.4412006 C14.8598723,36.7337811 18.6109379,38.848371 22.7525503,39.2442531 C27.0394824,39.6594466 31.3809093,38.2014417 34.795923,35.1502527 C38.3108441,31.9928514 40.5360525,27.3871009 40.9175168,22.3468456 C41.3080635,17.1520998 39.700464,11.9187313 36.4035226,7.83438652 C33.0066738,3.64382947 28.1021329,1.02714522 22.7525503,0.621607445 C17.2576479,0.206414004 11.7627455,2.16651327 7.5030609,6.13499011 C3.12530397,10.1903679 0.42780645,16.0223874 0.0463421541,22.3468456 C-0.344204625,28.8257944 1.74476652,35.2854319 5.89546136,40.2677532 C10.1460635,45.3659425 16.2040798,48.4943767 22.7525503,48.8999145 C29.4463404,49.315108 36.1038006,46.8432586 41.2172387,41.9768053 C46.4396666,37.0041397 49.6185357,29.9555068 50,22.3468456" id="Shape" stroke="#F6A623" stroke-width="7" sketch:type="MSShapeGroup"></path>
                <ellipse id="Oval-1" fill="#F6A623" sketch:type="MSShapeGroup" cx="21.75" cy="22.488189" rx="3.75" ry="3.77952756"></ellipse>
                <path d="M52.7716535,7.16220472 C51.1086614,7.16220472 50.4031496,8.97637795 50.4031496,10.6393701 C50.4031496,12.5543307 51.2598425,14.2173228 52.7716535,14.2173228 L59.7259843,14.2173228 L59.7259843,41.5811024 C59.7259843,43.1937008 61.6913386,44 63.6566929,44 C65.6220472,44 67.5874016,43.1937008 67.5874016,41.5811024 L67.5874016,14.2173228 L74.5417323,14.2173228 C76.0535433,14.2173228 76.9102362,12.5543307 76.9102362,10.6393701 C76.9102362,8.97637795 76.2047244,7.16220472 74.5417323,7.16220472 L52.7716535,7.16220472 Z M88.1480315,19.7102362 C84.4188976,19.7102362 79.5307087,21.3732283 79.5307087,23.7417323 C79.5307087,25.5559055 80.4377953,27.6220472 82.1511811,27.6220472 C83.511811,27.6220472 83.9149606,25.9590551 88.0472441,25.9590551 C90.919685,25.9590551 91.8267717,27.9748031 91.8267717,29.688189 L91.8267717,30.192126 L90.0125984,30.192126 C83.0582677,30.192126 78.2204724,31.8551181 78.2204724,37.8015748 C78.2204724,42.3874016 81.1937008,44.503937 84.6708661,44.503937 C88.1984252,44.503937 90.5165354,42.5889764 92.3307087,40.4724409 L92.3307087,41.5811024 C92.3307087,42.9417323 93.8425197,44 95.807874,44 C98.0251969,44 99.6377953,42.9417323 99.6377953,41.5811024 L99.6377953,29.5874016 C99.6377953,24.4976378 96.4125984,19.7102362 88.1480315,19.7102362 L88.1480315,19.7102362 Z M91.8267717,34.1732283 C91.8267717,36.7433071 89.6094488,38.8094488 88.0472441,38.8094488 C86.888189,38.8094488 86.0818898,38.1543307 86.0818898,36.6929134 C86.0818898,34.2740157 88.7527559,33.9716535 91.6251969,33.9716535 L91.8267717,33.9716535 L91.8267717,34.1732283 Z M112.135433,38.7086614 C108.103937,38.7086614 106.944882,36.4409449 105.332283,36.4409449 C103.770079,36.4409449 102.762205,38.6582677 102.762205,39.8677165 C102.762205,42.3370079 107.045669,44.503937 112.337008,44.503937 C118.63622,44.503937 122.062992,41.480315 122.062992,36.7433071 C122.062992,27.8740157 110.170079,29.9401575 110.170079,27.1181102 C110.170079,26.3622047 111.026772,25.5055118 113.04252,25.5055118 C115.76378,25.5055118 117.325984,27.0173228 118.686614,27.0173228 C120.500787,27.0173228 121.508661,24.3464567 121.508661,23.3385827 C121.508661,21.2220472 117.325984,19.7102362 112.941732,19.7102362 C105.785827,19.7102362 103.467717,23.7417323 103.467717,27.4708661 C103.467717,35.9370079 115.259843,33.5685039 115.259843,37.0456693 C115.259843,37.7511811 114.806299,38.7086614 112.135433,38.7086614 L112.135433,38.7086614 Z M146.503937,24.8 C146.907087,24.3968504 147.108661,23.9433071 147.108661,23.4393701 C147.108661,21.776378 145.04252,19.7102362 143.329134,19.7102362 C142.774803,19.7102362 142.220472,19.911811 141.817323,20.3149606 L133.451969,28.4283465 L133.451969,8.67401575 C133.451969,7.26299213 131.688189,6.30551181 129.470866,6.30551181 C127.253543,6.30551181 125.640945,7.26299213 125.640945,8.67401575 L125.640945,41.5811024 C125.640945,42.7905512 127.253543,44 129.470866,44 C131.688189,44 133.451969,42.7905512 133.451969,41.5811024 L133.451969,36.8944882 L136.022047,34.5259843 L142.119685,43.5464567 C142.573228,44.2015748 143.228346,44.503937 143.984252,44.503937 C145.848819,44.503937 148.469291,42.4377953 148.469291,40.623622 C148.469291,40.2204724 148.31811,39.8173228 148.066142,39.4141732 L141.162205,29.7385827 L146.503937,24.8 Z" id="Task" fill="#F6A623" sketch:type="MSShapeGroup"></path>
                <path d="M161.951258,37.44878 C157.264616,37.44878 155.752796,33.719624 153.384278,33.719624 C151.469306,33.719624 149.957486,36.239324 149.957486,37.95272 C149.957486,41.278724 155.500826,44.50394 162.10244,44.50394 C169.40957,44.50394 174.70094,40.573208 174.70094,33.316472 C174.70094,20.617184 158.726042,21.57467 158.726042,16.53527 C158.726042,14.973056 160.187468,13.51163 163.765442,13.51163 C167.89775,13.51163 168.855236,15.426602 170.66942,15.426602 C172.886756,15.426602 173.793848,12.654932 173.793848,11.294294 C173.793848,7.363562 166.436324,6.859622 163.765442,6.859622 C157.466192,6.859622 150.864578,9.73208 150.864578,17.29118 C150.864578,29.083376 166.839476,28.025102 166.839476,34.122776 C166.839476,36.541688 164.269382,37.44878 161.951258,37.44878 L161.951258,37.44878 Z M185.938802,30.292832 C185.938802,27.924314 187.652198,26.513282 189.3152,26.513282 C191.33096,26.513282 192.943568,28.37786 192.943568,30.292832 L192.943568,41.581088 C192.943568,43.193696 195.009722,44 196.823906,44 C198.789272,44 200.754638,43.193696 200.754638,41.581088 L200.754638,30.292832 C200.754638,24.497522 196.773512,19.710092 192.187658,19.710092 C188.81126,19.710092 186.392348,21.57467 185.434862,23.540036 L185.434862,22.380974 C185.434862,20.969942 183.872648,20.012456 182.00807,20.012456 C179.74034,20.012456 178.127732,20.969942 178.127732,22.380974 L178.127732,41.581088 C178.127732,42.790544 179.74034,44 182.00807,44 C184.124618,44 185.938802,42.790544 185.938802,41.581088 L185.938802,30.292832 Z M213.605108,19.710092 C209.875952,19.710092 204.987734,21.373094 204.987734,23.741612 C204.987734,25.555796 205.894826,27.62195 207.608222,27.62195 C208.96886,27.62195 209.372012,25.958948 213.50432,25.958948 C216.376778,25.958948 217.28387,27.974708 217.28387,29.688104 L217.28387,30.192044 L215.469686,30.192044 C208.515314,30.192044 203.67749,31.855046 203.67749,37.801538 C203.67749,42.387392 206.650736,44.50394 210.127922,44.50394 C213.655502,44.50394 215.973626,42.588968 217.78781,40.47242 L217.78781,41.581088 C217.78781,42.941726 219.29963,44 221.264996,44 C223.482332,44 225.09494,42.941726 225.09494,41.581088 L225.09494,29.587316 C225.09494,24.497522 221.869724,19.710092 213.605108,19.710092 L213.605108,19.710092 Z M217.28387,34.17317 C217.28387,36.743264 215.066534,38.809418 213.50432,38.809418 C212.345258,38.809418 211.538954,38.154296 211.538954,36.69287 C211.538954,34.273958 214.209836,33.971594 217.082294,33.971594 L217.28387,33.971594 L217.28387,34.17317 Z M233.309162,20.012456 C231.041432,20.012456 229.428824,20.969942 229.428824,22.380974 L229.428824,41.581088 C229.428824,42.790544 231.041432,44 233.309162,44 C235.476104,44 237.239894,42.790544 237.239894,41.581088 L237.239894,22.380974 C237.239894,20.969942 235.476104,20.012456 233.309162,20.012456 L233.309162,20.012456 Z M233.309162,8.169866 C230.991038,8.169866 229.176854,9.832868 229.176854,11.74784 C229.176854,13.662812 230.991038,15.376208 233.309162,15.376208 C235.576892,15.376208 237.391076,13.662812 237.391076,11.74784 C237.391076,9.832868 235.576892,8.169866 233.309162,8.169866 L233.309162,8.169866 Z M246.058844,6.305288 C243.791114,6.305288 242.178506,7.262774 242.178506,8.673806 L242.178506,41.581088 C242.178506,42.790544 243.791114,44 246.058844,44 C248.225786,44 249.989576,42.790544 249.989576,41.581088 L249.989576,8.673806 C249.989576,7.262774 248.225786,6.305288 246.058844,6.305288 L246.058844,6.305288 Z" id="Type-something" fill="#4A4A4A" sketch:type="MSShapeGroup"></path>
            </g>
        </g>
    </g>
</svg>