<?xml version="1.0" encoding="UTF-8" standalone="no"?>
<svg width="233px" height="40px" viewBox="0 0 233 40" version="1.1" xmlns="http://www.w3.org/2000/svg" xmlns:xlink="http://www.w3.org/1999/xlink" xmlns:sketch="http://www.bohemiancoding.com/sketch/ns">
    <!-- Generator: Sketch 3.2.2 (9983) - http://www.bohemiancoding.com/sketch -->
    <title>Rectangle 93 + Type something + TASKMAK</title>
    <desc>Created with Sketch.</desc>
    <defs></defs>
    <g id="Page-1" stroke="none" stroke-width="1" fill="none" fill-rule="evenodd" sketch:type="MSPage">
        <g id="GradualEngagement" sketch:type="MSArtboardGroup" transform="translate(-31.000000, -141.000000)">
            <g id="Rectangle-93-+-Type-something-+-TASKMAK" sketch:type="MSLayerGroup" transform="translate(31.000000, 141.000000)">
                <rect id="Rectangle-93" fill="#F6A623" sketch:type="MSShapeGroup" x="200" y="0" width="33" height="40"></rect>
                <path d="M220.3,21.56 C220.684002,22.0400024 221.169997,22.6699961 221.758,23.45 C222.346003,24.2300039 222.951997,25.0939953 223.576,26.042 C224.200003,26.9900047 224.817997,27.9799948 225.43,29.012 C226.042003,30.0440052 226.563998,31.0399952 226.996,32 L223.18,32 C222.699998,31.0879954 222.178003,30.1640047 221.614,29.228 C221.049997,28.2919953 220.480003,27.3980043 219.904,26.546 C219.327997,25.6939957 218.758003,24.8960037 218.194,24.152 C217.629997,23.4079963 217.120002,22.7600028 216.664,22.208 C216.351998,22.2320001 216.034002,22.244 215.71,22.244 L214.72,22.244 L211.588,22.244 L211.588,32 L208.096,32 L208.096,7.412 C209.080005,7.1719988 210.177994,7.01000042 211.39,6.926 C212.602006,6.84199958 213.711995,6.8 214.72,6.8 C218.224018,6.8 220.893991,7.4599934 222.73,8.78 C224.566009,10.1000066 225.484,12.0679869 225.484,14.684 C225.484,16.3400083 225.046004,17.7559941 224.17,18.932 C223.293996,20.1080059 222.004009,20.9839971 220.3,21.56 L220.3,21.56 Z M215.008,9.86 C213.519993,9.86 212.380004,9.89599964 211.588,9.968 L211.588,19.364 L214.072,19.364 C215.272006,19.364 216.351995,19.3040006 217.312,19.184 C218.272005,19.0639994 219.081997,18.8360017 219.742,18.5 C220.402003,18.1639983 220.911998,17.6900031 221.272,17.078 C221.632002,16.4659969 221.812,15.656005 221.812,14.648 C221.812,13.7119953 221.632002,12.9320031 221.272,12.308 C220.911998,11.6839969 220.426003,11.1920018 219.814,10.832 C219.201997,10.4719982 218.482004,10.2200007 217.654,10.076 C216.825996,9.93199928 215.944005,9.86 215.008,9.86 L215.008,9.86 Z" id="Type-something" fill="#FFFFFF" sketch:type="MSShapeGroup"></path>
                <path d="M19.764,7.052 L19.764,10.076 L11.916,10.076 L11.916,32 L8.424,32 L8.424,10.076 L0.576,10.076 L0.576,7.052 L19.764,7.052 Z M43.8,32 C43.391998,30.9199946 43.0080018,29.8580052 42.648,28.814 C42.2879982,27.7699948 41.9160019,26.7080054 41.532,25.628 L30.228,25.628 L27.96,32 L24.324,32 C25.2840048,29.3599868 26.1839958,26.9180112 27.024,24.674 C27.8640042,22.4299888 28.685996,20.3000101 29.49,18.284 C30.294004,16.2679899 31.091996,14.3420092 31.884,12.506 C32.676004,10.6699908 33.5039957,8.852009 34.368,7.052 L37.572,7.052 C38.4360043,8.852009 39.263996,10.6699908 40.056,12.506 C40.848004,14.3420092 41.645996,16.2679899 42.45,18.284 C43.254004,20.3000101 44.0759958,22.4299888 44.916,24.674 C45.7560042,26.9180112 46.6559952,29.3599868 47.616,32 L43.8,32 Z M40.524,22.748 C39.7559962,20.6599896 38.9940038,18.6380098 38.238,16.682 C37.4819962,14.7259902 36.6960041,12.848009 35.88,11.048 C35.0399958,12.848009 34.2420038,14.7259902 33.486,16.682 C32.7299962,18.6380098 31.9800037,20.6599896 31.236,22.748 L40.524,22.748 Z M63.372,29.516 C67.0200182,29.516 68.844,28.2680125 68.844,25.772 C68.844,25.0039962 68.6820016,24.3500027 68.358,23.81 C68.0339984,23.2699973 67.5960028,22.802002 67.044,22.406 C66.4919972,22.009998 65.8620035,21.6680014 65.154,21.38 C64.4459965,21.0919986 63.696004,20.8040014 62.904,20.516 C61.9919954,20.2039984 61.1280041,19.850002 60.312,19.454 C59.4959959,19.057998 58.788003,18.5900027 58.188,18.05 C57.587997,17.5099973 57.1140017,16.8680037 56.766,16.124 C56.4179983,15.3799963 56.244,14.4800053 56.244,13.424 C56.244,11.2399891 56.9879926,9.53600612 58.476,8.312 C59.9640074,7.08799388 62.0159869,6.476 64.632,6.476 C66.1440076,6.476 67.5179938,6.63799838 68.754,6.962 C69.9900062,7.28600162 70.8959971,7.63999808 71.472,8.024 L70.356,10.868 C69.8519975,10.5559984 69.102005,10.2500015 68.106,9.95 C67.109995,9.6499985 65.9520066,9.5 64.632,9.5 C63.9599966,9.5 63.3360029,9.57199928 62.76,9.716 C62.1839971,9.86000072 61.6800022,10.0759986 61.248,10.364 C60.8159978,10.6520014 60.4740013,11.0179978 60.222,11.462 C59.9699987,11.9060022 59.844,12.427997 59.844,13.028 C59.844,13.7000034 59.9759987,14.2639977 60.24,14.72 C60.5040013,15.1760023 60.8759976,15.5779983 61.356,15.926 C61.8360024,16.2740017 62.3939968,16.5919986 63.03,16.88 C63.6660032,17.1680014 64.3679962,17.4559986 65.136,17.744 C66.2160054,18.1760022 67.2059955,18.6079978 68.106,19.04 C69.0060045,19.4720022 69.7859967,19.987997 70.446,20.588 C71.1060033,21.188003 71.6159982,21.9019959 71.976,22.73 C72.3360018,23.5580041 72.516,24.5599941 72.516,25.736 C72.516,27.9200109 71.718008,29.5999941 70.122,30.776 C68.525992,31.9520059 66.2760145,32.54 63.372,32.54 C62.3879951,32.54 61.4820041,32.4740007 60.654,32.342 C59.8259959,32.2099993 59.0880032,32.0540009 58.44,31.874 C57.7919968,31.6939991 57.2340023,31.502001 56.766,31.298 C56.2979977,31.093999 55.9320013,30.9200007 55.668,30.776 L56.712,27.896 C57.2640028,28.2080016 58.1039944,28.5559981 59.232,28.94 C60.3600056,29.3240019 61.7399918,29.516 63.372,29.516 L63.372,29.516 Z M101.196,7.052 C100.451996,7.86800408 99.6120047,8.77399502 98.676,9.77 C97.7399953,10.766005 96.7620051,11.7859948 95.742,12.83 C94.7219949,13.8740052 93.708005,14.899995 92.7,15.908 C91.691995,16.916005 90.7440044,17.8519957 89.856,18.716 C90.8880052,19.4360036 91.9799942,20.3239947 93.132,21.38 C94.2840058,22.4360053 95.4119945,23.563994 96.516,24.764 C97.6200055,25.964006 98.6579951,27.1879938 99.63,28.436 C100.602005,29.6840062 101.411997,30.8719944 102.06,32 L97.956,32 C97.2359964,30.8719944 96.4080047,29.7380057 95.472,28.598 C94.5359953,27.4579943 93.5460052,26.3660052 92.502,25.322 C91.4579948,24.2779948 90.4020053,23.3120044 89.334,22.424 C88.2659947,21.5359956 87.228005,20.7800031 86.22,20.156 L86.22,32 L82.728,32 L82.728,7.052 L86.22,7.052 L86.22,18.068 C87.0600042,17.275996 87.983995,16.382005 88.992,15.386 C90.000005,14.389995 90.9959951,13.388005 91.98,12.38 C92.9640049,11.371995 93.8939956,10.4060046 94.77,9.482 C95.6460044,8.55799538 96.383997,7.74800348 96.984,7.052 L101.196,7.052 Z M122.568,28.544 C122.327999,27.9679971 122.010002,27.2360044 121.614,26.348 C121.217998,25.4599956 120.792002,24.5000052 120.336,23.468 C119.879998,22.4359948 119.394003,21.3740055 118.878,20.282 C118.361997,19.1899945 117.876002,18.1580049 117.42,17.186 C116.963998,16.2139951 116.538002,15.3440038 116.142,14.576 C115.745998,13.8079962 115.428001,13.220002 115.188,12.812 C114.923999,15.6440142 114.708001,18.7099835 114.54,22.01 C114.371999,25.3100165 114.228001,28.6399832 114.108,32 L110.688,32 C110.784,29.8399892 110.891999,27.662011 111.012,25.466 C111.132001,23.269989 111.269999,21.1100106 111.426,18.986 C111.582001,16.8619894 111.749999,14.7920101 111.93,12.776 C112.110001,10.7599899 112.307999,8.852009 112.524,7.052 L115.584,7.052 C116.232003,8.10800528 116.927996,9.3559928 117.672,10.796 C118.416004,12.2360072 119.159996,13.7419921 119.904,15.314 C120.648004,16.8860079 121.367997,18.4579921 122.064,20.03 C122.760003,21.6020079 123.395997,23.0359935 123.972,24.332 C124.548003,23.0359935 125.183997,21.6020079 125.88,20.03 C126.576003,18.4579921 127.295996,16.8860079 128.04,15.314 C128.784004,13.7419921 129.527996,12.2360072 130.272,10.796 C131.016004,9.3559928 131.711997,8.10800528 132.36,7.052 L135.42,7.052 C136.236004,15.0920402 136.847998,23.407957 137.256,32 L133.836,32 C133.715999,28.6399832 133.572001,25.3100165 133.404,22.01 C133.235999,18.7099835 133.020001,15.6440142 132.756,12.812 C132.515999,13.220002 132.198002,13.8079962 131.802,14.576 C131.405998,15.3440038 130.980002,16.2139951 130.524,17.186 C130.067998,18.1580049 129.582003,19.1899945 129.066,20.282 C128.549997,21.3740055 128.064002,22.4359948 127.608,23.468 C127.151998,24.5000052 126.726002,25.4599956 126.33,26.348 C125.933998,27.2360044 125.616001,27.9679971 125.376,28.544 L122.568,28.544 Z M165.396,32 C164.987998,30.9199946 164.604002,29.8580052 164.244,28.814 C163.883998,27.7699948 163.512002,26.7080054 163.128,25.628 L151.824,25.628 L149.556,32 L145.92,32 C146.880005,29.3599868 147.779996,26.9180112 148.62,24.674 C149.460004,22.4299888 150.281996,20.3000101 151.086,18.284 C151.890004,16.2679899 152.687996,14.3420092 153.48,12.506 C154.272004,10.6699908 155.099996,8.852009 155.964,7.052 L159.168,7.052 C160.032004,8.852009 160.859996,10.6699908 161.652,12.506 C162.444004,14.3420092 163.241996,16.2679899 164.046,18.284 C164.850004,20.3000101 165.671996,22.4299888 166.512,24.674 C167.352004,26.9180112 168.251995,29.3599868 169.212,32 L165.396,32 Z M162.12,22.748 C161.351996,20.6599896 160.590004,18.6380098 159.834,16.682 C159.077996,14.7259902 158.292004,12.848009 157.476,11.048 C156.635996,12.848009 155.838004,14.7259902 155.082,16.682 C154.325996,18.6380098 153.576004,20.6599896 152.832,22.748 L162.12,22.748 Z M197.064,7.052 C196.319996,7.86800408 195.480005,8.77399502 194.544,9.77 C193.607995,10.766005 192.630005,11.7859948 191.61,12.83 C190.589995,13.8740052 189.576005,14.899995 188.568,15.908 C187.559995,16.916005 186.612004,17.8519957 185.724,18.716 C186.756005,19.4360036 187.847994,20.3239947 189,21.38 C190.152006,22.4360053 191.279994,23.563994 192.384,24.764 C193.488006,25.964006 194.525995,27.1879938 195.498,28.436 C196.470005,29.6840062 197.279997,30.8719944 197.928,32 L193.824,32 C193.103996,30.8719944 192.276005,29.7380057 191.34,28.598 C190.403995,27.4579943 189.414005,26.3660052 188.37,25.322 C187.325995,24.2779948 186.270005,23.3120044 185.202,22.424 C184.133995,21.5359956 183.096005,20.7800031 182.088,20.156 L182.088,32 L178.596,32 L178.596,7.052 L182.088,7.052 L182.088,18.068 C182.928004,17.275996 183.851995,16.382005 184.86,15.386 C185.868005,14.389995 186.863995,13.388005 187.848,12.38 C188.832005,11.371995 189.761996,10.4060046 190.638,9.482 C191.514004,8.55799538 192.251997,7.74800348 192.852,7.052 L197.064,7.052 Z" id="TASKMAK" fill="#4A4A4A" sketch:type="MSShapeGroup"></path>
            </g>
        </g>
    </g>
</svg>